<?xml version="1.0" standalone="no"?>
<!DOCTYPE svg PUBLIC "-//W3C//DTD SVG 20010904//EN"
 "http://www.w3.org/TR/2001/REC-SVG-20010904/DTD/svg10.dtd">
<svg version="1.0" xmlns="http://www.w3.org/2000/svg"
 width="887.000000pt" height="887.000000pt" viewBox="0 0 887.000000 887.000000"
 preserveAspectRatio="xMidYMid meet">
<metadata>
Created by potrace 1.14, written by Peter Selinger 2001-2017
</metadata>
<g transform="translate(0.000000,887.000000) scale(0.100000,-0.100000)"
fill="#000000" stroke="none">
<path d="M5973 8413 c-228 -274 -747 -949 -1077 -1400 -82 -112 -151 -203
-155 -203 -3 1 -37 47 -76 102 -237 344 -441 614 -531 705 -45 45 -90 57 -112
30 -13 -15 44 -100 298 -452 281 -389 322 -452 314 -477 -19 -63 -141 -246
-386 -581 -206 -281 -288 -402 -288 -423 0 -9 12 -14 35 -14 65 0 154 100 430
480 181 249 305 410 315 410 12 0 131 -153 300 -385 266 -366 386 -505 437
-505 63 0 61 11 -17 127 -41 59 -169 241 -285 403 -116 162 -240 337 -274 389
l-63 94 216 321 c367 543 706 1035 913 1325 91 128 112 161 99 161 -1 0 -43
-48 -93 -107z"/>
<path d="M892 6713 c3 -1038 1 -1004 60 -1011 20 -2 31 4 44 23 24 37 33 260
42 1075 l7 675 177 -258 c98 -141 258 -373 355 -515 510 -743 1142 -1620 1258
-1747 l36 -40 -18 34 c-23 44 -927 1404 -1193 1796 -393 579 -541 785 -628
871 -40 40 -48 44 -93 44 l-50 0 3 -947z"/>
<path d="M2540 6681 l0 -981 563 0 c572 1 739 8 764 33 18 17 8 43 -20 53 -12
4 -280 9 -594 11 l-573 4 0 428 0 428 218 6 c119 4 289 7 377 7 187 0 431 15
486 30 41 11 51 33 22 45 -35 14 -315 24 -705 24 l-398 1 0 388 0 389 538 6
c508 6 632 13 656 37 15 15 -5 42 -40 54 -17 5 -299 11 -661 13 l-633 5 0
-981z"/>
<path d="M5720 7651 c-80 -7 -130 -22 -130 -39 1 -44 52 -52 387 -59 l302 -6
3 -881 c4 -977 3 -958 64 -964 18 -2 36 3 43 12 25 30 31 213 31 1012 l0 821
303 6 c324 7 382 15 382 52 0 46 -35 49 -690 51 -335 1 -648 -1 -695 -5z"/>
<path d="M7813 6226 c-60 -28 -86 -68 -87 -133 -1 -62 26 -90 142 -148 110
-54 165 -97 155 -121 -18 -48 -143 -60 -208 -19 -68 42 -104 25 -70 -33 53
-89 228 -96 316 -12 78 74 35 157 -121 235 -134 68 -171 114 -117 149 45 30
91 30 156 1 57 -26 91 -28 91 -6 0 20 -50 67 -93 89 -57 28 -99 28 -164 -2z"/>
<path d="M7540 6199 c-8 -14 -17 -87 -22 -174 -11 -194 -19 -222 -65 -241 -46
-20 -81 -11 -116 29 -26 31 -28 31 -42 13 -22 -28 -18 -61 8 -92 20 -23 34
-28 84 -32 78 -5 144 21 168 69 37 70 44 389 10 435 -11 16 -13 16 -25 -7z"/>
<path d="M7096 5774 c-21 -21 -17 -68 6 -72 24 -5 60 35 56 61 -4 28 -39 34
-62 11z"/>
<path d="M2460 4486 c-66 -17 -156 -61 -163 -80 -4 -9 -13 -16 -22 -16 -8 0
-15 -7 -15 -15 0 -9 -7 -18 -15 -22 -9 -3 -25 -24 -37 -47 -11 -22 -26 -47
-32 -55 -33 -41 -34 -133 -35 -1920 -1 -1810 0 -1856 37 -1926 8 -16 22 -45
31 -62 8 -18 23 -36 33 -39 10 -3 18 -9 18 -14 0 -12 48 -60 60 -60 5 0 25
-11 44 -24 20 -13 64 -29 99 -35 87 -15 3484 -15 3577 0 37 6 83 22 108 37 49
30 132 106 132 120 0 5 11 21 25 36 14 15 25 34 25 42 0 8 9 42 20 74 20 60
20 79 17 1868 l-2 1807 -27 69 c-15 37 -34 76 -42 85 -9 10 -16 23 -16 29 0 7
-3 12 -7 12 -5 0 -28 19 -53 43 -53 48 -102 74 -180 93 -75 18 -3510 18 -3580
0z m3340 -2036 c47 -12 89 -26 94 -31 6 -5 18 -9 28 -9 17 0 18 -14 18 -200 0
-110 -4 -200 -8 -200 -5 0 -17 9 -27 20 -10 11 -26 20 -36 20 -9 0 -19 5 -21
11 -2 6 -26 17 -53 25 -28 7 -77 22 -109 34 -47 16 -84 20 -185 20 -121 0
-128 -1 -192 -32 -90 -45 -119 -85 -119 -167 0 -34 4 -61 10 -61 5 0 15 -11
22 -24 14 -26 111 -106 128 -106 6 0 28 -11 50 -25 22 -14 46 -25 55 -25 8 0
15 -4 15 -10 0 -5 7 -10 15 -10 8 0 23 -4 33 -9 9 -5 36 -18 58 -30 23 -11 51
-21 63 -21 11 0 21 -4 21 -9 0 -8 92 -67 125 -80 6 -2 16 -12 23 -23 7 -10 17
-18 22 -18 11 0 66 -55 73 -75 4 -8 11 -15 16 -15 6 0 26 -33 45 -72 51 -109
65 -223 42 -359 -10 -65 -24 -114 -36 -131 -11 -15 -20 -34 -20 -43 0 -8 -11
-25 -25 -37 -14 -12 -25 -28 -25 -35 0 -8 -8 -17 -17 -20 -10 -4 -33 -22 -52
-40 -18 -18 -43 -35 -55 -39 -11 -4 -37 -17 -56 -30 -46 -29 -176 -60 -322
-75 -189 -20 -475 18 -595 79 l-53 27 0 208 0 208 28 -15 c16 -8 34 -22 41
-30 22 -26 191 -103 266 -121 123 -29 211 -31 314 -5 82 20 94 26 132 67 l41
45 -4 73 c-3 69 -5 75 -43 114 -22 22 -52 46 -67 52 -16 6 -28 15 -28 20 0 5
-30 22 -67 40 -38 17 -84 39 -104 50 -20 10 -45 19 -55 20 -11 0 -32 9 -49 19
-16 11 -58 33 -93 50 -35 18 -66 38 -69 45 -2 8 -13 17 -24 20 -15 5 -63 51
-136 129 -6 7 -26 44 -44 82 -33 69 -33 70 -33 224 -1 150 0 157 27 205 15 27
27 54 27 58 0 8 13 26 58 82 18 22 95 85 104 85 6 0 20 10 33 22 33 32 190 83
300 99 33 4 139 6 235 4 138 -3 193 -8 260 -25z m-1210 -185 l0 -175 -265 0
-265 0 0 -775 0 -775 -210 0 -210 0 0 775 0 775 -265 0 -265 0 0 175 0 175
740 0 740 0 0 -175z"/>
</g>
</svg>
